<svg width="720" height="520" viewBox="0 0 720 520" fill="none" xmlns="http://www.w3.org/2000/svg">
  <rect width="720" height="520" rx="22" fill="#F3F7FA"/>
  <path d="M60 384C127 275 187 274 240 332C293 390 348 421 423 300C498 179 564 157 660 222" stroke="#0A6C74" stroke-width="10" stroke-linecap="round"/>
  <path d="M60 410C142 342 204 336 275 365C360 400 414 393 470 325C526 257 578 239 660 270" stroke="#D64F3B" stroke-width="6" stroke-linecap="round"/>
  <g filter="url(#shadow)">
    <rect x="142" y="162" width="436" height="94" rx="47" fill="url(#body)"/>
    <rect x="114" y="184" width="67" height="50" rx="25" fill="#2D4356"/>
    <rect x="539" y="184" width="67" height="50" rx="25" fill="#2D4356"/>
    <rect x="195" y="178" width="330" height="62" rx="31" fill="#FFFFFF" opacity=".82"/>
    <path d="M238 209H482" stroke="#6E8999" stroke-width="5" stroke-linecap="round" stroke-dasharray="18 16"/>
    <text x="360" y="217" text-anchor="middle" font-family="Arial, sans-serif" font-size="31" font-weight="700" fill="#183244">HPLC</text>
  </g>
  <g fill="#183244" font-family="Arial, sans-serif">
    <text x="78" y="82" font-size="28" font-weight="700">Column selection</text>
    <text x="78" y="116" font-size="18">Phase, pore, particle, and geometry matched to method need</text>
  </g>
  <g transform="translate(86 428)">
    <rect width="144" height="42" rx="21" fill="#FFFFFF"/>
    <circle cx="24" cy="21" r="8" fill="#0A6C74"/>
    <text x="42" y="27" font-family="Arial, sans-serif" font-size="15" font-weight="700" fill="#183244">C18 / AQ-C18</text>
  </g>
  <g transform="translate(252 428)">
    <rect width="120" height="42" rx="21" fill="#FFFFFF"/>
    <circle cx="24" cy="21" r="8" fill="#D64F3B"/>
    <text x="42" y="27" font-family="Arial, sans-serif" font-size="15" font-weight="700" fill="#183244">HILIC</text>
  </g>
  <g transform="translate(392 428)">
    <rect width="150" height="42" rx="21" fill="#FFFFFF"/>
    <circle cx="24" cy="21" r="8" fill="#D4A72C"/>
    <text x="42" y="27" font-family="Arial, sans-serif" font-size="15" font-weight="700" fill="#183244">SEC / IEX</text>
  </g>
  <defs>
    <linearGradient id="body" x1="114" y1="162" x2="606" y2="256" gradientUnits="userSpaceOnUse">
      <stop stop-color="#A9C8D6"/>
      <stop offset=".45" stop-color="#F9FBFC"/>
      <stop offset="1" stop-color="#6E8999"/>
    </linearGradient>
    <filter id="shadow" x="86" y="142" width="548" height="150" filterUnits="userSpaceOnUse" color-interpolation-filters="sRGB">
      <feDropShadow dx="0" dy="16" stdDeviation="18" flood-color="#183244" flood-opacity=".22"/>
    </filter>
  </defs>
</svg>
